<svg width="256" height="128" viewBox="0 0 256 128" fill="none" xmlns="http://www.w3.org/2000/svg">
<rect width="256" height="128" fill="white"/>
<path d="M128.392 51.296H150.568L150.544 55.712H133.624V66.44H148.672V70.808H133.624V86H128.392V51.296ZM156.11 55.976V51.296H182.774V55.976H172.286V86H167.102V55.976H156.11ZM211.819 51.296H216.979V86H212.371L194.323 59.576V86H189.187V51.296H194.155L211.819 77.168V51.296Z" fill="#171717"/>
<path d="M75.9248 45.3417L78.983 44.537L88.1574 41.8007L95.8833 35.2015C96.2589 33.6993 97.01 30.5982 97.01 30.2119C97.01 29.8256 97.2783 29.5681 97.171 29.2462C96.8994 28.9242 97.1388 28.6345 94.4347 28.7633C91.7307 28.8921 89.1232 30.4265 88.1574 31.1776C87.1917 31.9288 81.8601 36.3483 79.3049 38.9035C78.822 39.3864 77.2124 41.3179 76.7296 41.9617C76.4144 42.3819 75.9587 43.1425 75.9248 43.7322C75.821 45.5384 75.9248 45.3417 75.9248 45.3417Z" fill="#21835D"/>
<path d="M71.7866 70.1325L74.9303 69.7901L84.4091 68.4445L93.0281 63.0639C93.6223 61.6339 94.3775 60.8536 94.4348 60.4716C94.4921 60.0895 95.137 57.7477 95.0787 57.4134C94.9855 56.8802 95.2435 56.7556 92.5502 56.482C89.857 56.2084 87.0508 57.3392 85.9843 57.9388C84.9179 58.5385 78.9898 62.1186 76.084 64.2666C75.5349 64.6725 73.6567 66.344 73.0837 66.9091C72.7097 67.2779 72.1462 67.9626 72.0253 68.5407C71.6548 70.3116 71.7866 70.1325 71.7866 70.1325Z" fill="#21835D"/>
<path d="M74.5266 45.4685C73.9364 46.166 72.9011 47.3285 72.1123 48.6876C71.4202 49.8799 70.6636 51.9067 70.6636 51.9067L69.376 56.0916L68.7322 69.7728L70.6636 73.1529L75.4923 68.1633L84.1839 59.4716L93.0365 46.2733C93.0365 46.2733 95.8893 39.9473 95.2899 35.8111C95.198 35.1767 95.3615 34.7076 94.968 34.2016C94.2734 33.3085 93.182 33.9888 92.0708 34.2016C91.2899 34.3511 90.1393 34.8454 90.1393 34.8454L85.9545 36.455C85.7398 36.6159 82.5744 38.3864 82.5744 38.3864C82.5744 38.3864 78.1213 41.5519 77.2628 42.4103C76.4044 43.2688 75.1168 44.771 74.5266 45.4685Z" fill="#024F3F"/>
<path d="M65.1913 8.78207C64.1612 7.36566 62.1868 8.1919 61.3284 8.78207L68.0885 26.6482C68.1958 26.5945 68.4748 26.4228 68.7323 26.1653C68.8766 26.021 69.2133 25.2561 69.3762 24.2338C69.504 23.4317 69.4664 22.4092 69.5371 21.8195C69.4835 20.9611 69.3762 19.1798 69.3762 18.9223C69.3762 18.6004 68.8933 17.1518 68.7323 16.508C68.5714 15.8641 67.7666 13.4498 67.6057 12.9669L67.6056 12.9669C67.4447 12.4841 66.479 10.5526 65.1913 8.78207Z" fill="#21835D"/>
<path d="M41.963 44.537C43.8945 48.239 49.528 53.0677 55.0005 57.2525C57.6038 59.2433 60.2755 61.5684 62.4044 62.5641C63.8557 63.2428 64.8188 63.0469 65.7845 63.0469C66.0908 62.613 66.6609 62.419 67.0722 61.7593C67.5253 61.0324 67.8095 59.8434 67.877 59.5059C68.0379 58.7011 67.3941 53.5505 67.2331 52.1019C67.0722 50.6533 65.1407 47.5952 64.8188 47.1123C64.4969 46.6294 62.7264 43.5713 61.7606 43.0884C61.3624 42.8893 59.5029 41.6202 57.5758 40.6741C55.7644 39.7848 53.8738 39.0001 52.5861 38.7426C51.7814 38.5816 49.0129 37.7447 46.3089 37.6159C43.6048 37.4871 41.3192 37.6159 40.8364 38.7426C40.6218 39.3864 40.4179 41.5754 41.963 44.537Z" fill="#024F3F"/>
<path d="M41.3193 79.4474C53.6807 84.0829 62.5655 81.7007 65.4627 79.9302C65.4627 77.4096 65.8545 75.7703 65.4627 74.6187C64.5785 72.0199 61.6798 71.9091 55.3225 69.79C47.9829 67.3435 39.8171 68.9852 36.6516 70.1119C33.0569 71.2923 28.9579 74.8118 41.3193 79.4474Z" fill="#024F3F"/>
<path d="M85.5322 61.2348C73.1953 65.9353 68.1079 73.599 67.1063 76.8433C68.7737 78.7336 69.5642 80.2222 70.6198 80.8267C73.002 82.1908 75.2492 80.3564 81.4187 77.7404C88.5414 74.7201 93.5794 68.0872 95.208 65.1484C97.1231 61.8853 97.869 56.5343 85.5322 61.2348Z" fill="#024F3F"/>
<path d="M64.8189 75.4405C64.6579 74.3138 62.9196 72.3824 59.8292 71.7386C55.9663 70.9338 42.5514 67.0042 40.3536 65.7832C38.905 64.9784 37.385 63.5105 36.3297 62.4031C35.4719 61.5031 35.042 60.9545 34.7201 59.3449C34.2719 57.1038 36.6873 55.3302 39.5488 55.1601C40.6755 55.1601 43.7336 55.2625 45.1822 55.482C48.7595 56.024 53.447 56.8856 57.2539 59.8278C59.0997 61.2543 60.4921 63.2605 61.9217 65.7832C66.2997 73.5091 65.4627 75.4405 64.8189 75.4405Z" fill="#024F3F"/>
<path d="M81.8805 13.7944C80.9791 13.5369 79.949 13.4725 79.7881 13.7944C79.6271 14.1163 75.7642 40.996 75.7642 40.996L77.6956 38.5816C78.6614 36.8648 80.7538 33.1091 81.3976 31.8215C82.0414 30.5339 83.0608 26.6709 83.49 24.9004C83.9193 23.1299 83.6827 21.1649 83.49 18.7841C83.4032 17.7116 83.2218 16.6916 83.1681 16.0478C83.1681 16.0478 82.7818 14.052 81.8805 13.7944Z" fill="#21835D"/>
<path d="M52.1033 37.7768C53.7772 38.5494 57.5221 38.6352 58.8634 38.5816C57.9621 37.0364 52.4788 31.2849 49.8499 28.6023L46.7917 26.9928C45.8796 26.6172 43.9911 26.4133 43.7336 27.3147C43.4117 28.4414 43.8945 30.0509 44.5383 31.3386C45.1822 32.6262 46.9527 34.3967 47.9184 35.3625C48.8842 36.3282 50.0108 36.8111 52.1033 37.7768Z" fill="#024F3F"/>
<path d="M60.2215 38.5816C62.2818 40.3843 66.4988 49.2047 68.1084 52.5848V28.2804C68.323 28.4951 68.0118 26.4134 66.9817 20.2326C65.9515 14.0519 62.0457 9.50226 60.2215 8C59.5777 8.53652 58.1613 10.2856 57.6462 12.9896C57.1312 15.6937 57.1097 21.1984 57.1634 23.6127C57.3243 27.6903 58.1613 36.7789 60.2215 38.5816Z" fill="#024F3F"/>
<path d="M86.9202 119.382H47.647C50.2759 118.63 56.1132 115.358 58.431 114.07C61.3282 112.46 62.9378 104.574 63.4206 101.837C63.6629 100.465 64.2249 94.273 64.5473 87.9951C64.8677 81.7575 64.9495 75.4349 64.8693 73.67C64.7083 70.129 59.3968 62.2422 58.431 61.2764C57.9725 60.8179 55.6767 59.4605 53.2804 57.7354C51.6394 56.554 49.9513 55.0231 48.7737 54.1944L42.9792 46.9514V45.5028C45.018 47.8098 49.8682 52.7136 51.6709 54.5163C53.9242 56.7697 59.3968 59.8278 61.0063 61.2764C62.294 62.4353 65.2448 67.9293 66.6398 70.29L67.2836 62.2422C67.2836 60.9009 67.187 57.156 66.8007 52.9067C66.3179 47.5952 58.7529 39.0645 58.431 38.2597C58.1735 37.6159 52.8512 32.0898 50.2223 29.4072C49.9201 29.0295 49.9004 29.4072 49.9004 28.4599C50.0348 28.4507 50.2858 28.5346 50.7051 28.7633C52.4756 29.7291 59.3701 37.0106 62.294 40.3522C64.5473 42.9275 66.8007 47.4342 67.9274 50.9753L67.7665 46.9514V28.7633L68.7322 26.349V28.2805C68.6785 34.826 68.9253 48.1102 69.0541 48.8828C69.2151 49.8486 69.6979 54.5163 69.6979 57.0916V69.8071C69.6979 70.7084 70.2344 71.5776 70.5027 71.8995C70.5027 71.8995 75.4923 66.427 76.2971 65.9442C77.1019 65.4613 87.4031 53.2286 88.0469 52.4239C88.6907 51.6191 90.9441 47.9171 91.9098 46.1466C92.3917 45.2632 93.2447 42.8998 94.0023 40.1912C94.7631 37.4709 95.2997 34.13 95.6118 32.4653C96.0947 29.89 97.0604 28.9243 97.0604 28.2805C97.3287 29.2999 97.318 31.2743 97.0604 33.592C96.8935 35.0944 96.4487 37.3542 96.0947 39.5474C95.9025 40.7376 95.573 41.7473 95.2899 42.7665C94.7003 44.8893 92.6964 49.5803 89.0126 54.3553C87.734 56.0127 86.1637 57.712 84.6668 59.345C82.8963 61.2764 80.482 64.0127 78.2286 66.2661C75.1704 69.8071 71.6294 72.7043 71.1465 75.4406V91.6971C71.1465 101.676 73.239 110.851 75.3314 113.426C77.0053 115.486 83.7547 118.255 86.9202 119.382Z" fill="#914B27"/>
<path d="M74.6372 15.5649C73.5105 16.6916 71.0962 19.5888 69.9695 21.5202L68.6818 24.2565C68.2733 25.126 67.877 26.188 67.7161 26.9927C67.5551 27.7975 68.6817 46.4684 69.0037 46.4684C69.3256 46.4684 74.3152 43.0883 74.9591 42.2836C75.603 41.4788 75.778 41.3284 76.2467 40.674C77.5237 38.8914 78.0809 37.7481 78.822 35.6844C79.327 34.2782 79.4545 33.4388 79.7878 31.9824C80.3571 29.4942 80.7954 28.0939 80.9145 25.5441C80.9584 24.6023 80.9145 23.6127 80.9145 23.1298V16.8525C80.9145 16.3697 80.4316 13.9553 80.4316 13.9553C80.217 13.7944 79.5946 13.5046 78.822 13.6334C77.8563 13.7944 75.7638 14.4382 74.6372 15.5649Z" fill="#024F3F"/>
<path fill-rule="evenodd" clip-rule="evenodd" d="M67.7666 46.9541V28.7631L68.7322 26.349V28.2805C68.6786 34.826 68.9254 48.1102 69.0541 48.8828C69.2151 49.8486 69.698 54.5163 69.698 57.0916V69.8071C69.698 70.7084 70.2345 71.5776 70.5027 71.8995C70.5027 71.8995 75.4924 66.427 76.2972 65.9442C77.1019 65.4613 87.4031 53.2286 88.0469 52.4239C88.6908 51.6191 90.9441 47.9171 91.9099 46.1466C92.3917 45.2632 93.2447 42.8998 94.0023 40.1912C94.6229 37.9722 95.0944 35.3402 95.4164 33.542C95.4892 33.1358 95.5543 32.7721 95.6119 32.4653C95.9068 30.8921 96.382 29.9195 96.7072 29.2541C96.9143 28.8302 97.0605 28.531 97.0605 28.2805C97.3287 29.2999 97.318 31.2743 97.0605 33.592C96.9522 34.5664 96.7271 35.8593 96.4856 37.246C96.3548 37.9975 96.2192 38.7766 96.0947 39.5474C95.9422 40.4923 95.7031 41.3234 95.4693 42.1358C95.4086 42.3468 95.3483 42.5564 95.29 42.7665C94.7003 44.8893 92.6964 49.5803 89.0127 54.3553C87.7947 55.9341 86.3121 57.5509 84.8804 59.1121C84.8091 59.1899 84.7379 59.2675 84.6669 59.345C84.2489 59.8009 83.7951 60.3017 83.316 60.8304C81.7654 62.5414 79.9501 64.5446 78.2286 66.2661C77.3925 67.2342 76.5204 68.1541 75.6845 69.0358C73.4629 71.3792 71.4974 73.4524 71.1466 75.4406V91.6971C71.1466 101.676 73.239 110.851 75.3314 113.426C77.0054 115.486 83.7548 118.255 86.9202 119.382L67.7666 119.382V50.4857C67.8225 50.6507 67.8761 50.814 67.9274 50.9753L67.7666 46.9541Z" fill="#41251D"/>
</svg>
