<svg width="512" height="512" viewBox="0 0 512 512" fill="none" xmlns="http://www.w3.org/2000/svg">
<path d="M296.903 179.894L309.506 176.577L347.316 165.3L379.156 138.104C380.704 131.912 383.8 119.132 383.8 117.54C383.8 115.948 384.905 114.887 384.463 113.56C383.344 112.234 384.33 111.04 373.186 111.57C362.042 112.101 351.296 118.425 347.316 121.52C343.336 124.616 321.363 142.83 310.833 153.36C308.843 155.35 302.209 163.31 300.219 165.964C298.921 167.695 297.042 170.83 296.903 173.26C296.475 180.704 296.903 179.894 296.903 179.894Z" fill="#21835D"/>
<path d="M279.848 282.062L292.804 280.651L331.868 275.105L367.389 252.931C369.838 247.037 372.95 243.822 373.186 242.247C373.422 240.673 376.08 231.021 375.84 229.644C375.456 227.447 376.519 226.933 365.42 225.805C354.32 224.678 342.755 229.338 338.36 231.809C333.965 234.28 309.534 249.035 297.559 257.887C295.295 259.56 287.555 266.449 285.194 268.778C283.652 270.298 281.33 273.119 280.832 275.502C279.305 282.8 279.848 282.062 279.848 282.062Z" fill="#21835D"/>
<path d="M291.14 180.416C288.708 183.29 284.442 188.081 281.19 193.682C278.338 198.596 275.22 206.949 275.22 206.949L269.914 224.196L267.26 280.579L275.22 294.509L295.12 273.946L330.941 238.126L367.424 183.732C367.424 183.732 379.181 157.662 376.711 140.616C376.332 138.001 377.006 136.068 375.384 133.982C372.521 130.302 368.024 133.105 363.444 133.982C360.226 134.599 355.484 136.636 355.484 136.636L338.237 143.269C337.353 143.932 324.307 151.229 324.307 151.229C324.307 151.229 305.955 164.275 302.417 167.812C298.879 171.35 293.573 177.541 291.14 180.416Z" fill="#024F3F"/>
<path d="M252.667 29.2231C248.422 23.3858 240.285 26.7909 236.747 29.2231L264.607 102.853C265.049 102.632 266.199 101.925 267.26 100.863C267.855 100.269 269.243 97.1161 269.914 92.9033C270.44 89.5974 270.285 85.3837 270.577 82.9532C270.356 79.4154 269.914 72.0745 269.914 71.0132C269.914 69.6865 267.924 63.7165 267.26 61.0632C266.597 58.4099 263.28 48.46 262.617 46.4699L262.617 46.4698C261.954 44.4798 257.974 36.5198 252.667 29.2231Z" fill="#21835D"/>
<path d="M156.939 176.577C164.899 191.834 188.116 211.734 210.669 228.98C221.398 237.185 232.409 246.767 241.183 250.871C247.164 253.668 251.133 252.861 255.113 252.861C256.375 251.072 258.724 250.273 260.419 247.554C262.287 244.558 263.458 239.658 263.736 238.267C264.399 234.95 261.746 213.724 261.083 207.754C260.419 201.784 252.459 189.18 251.133 187.19C249.806 185.2 242.509 172.597 238.529 170.607C236.888 169.786 229.225 164.556 221.283 160.657C213.818 156.992 206.026 153.758 200.719 152.697C197.403 152.034 185.993 148.584 174.849 148.054C163.705 147.523 154.286 148.054 152.296 152.697C151.411 155.35 150.571 164.372 156.939 176.577Z" fill="#024F3F"/>
<path d="M154.286 320.45C205.23 339.554 241.846 329.737 253.786 322.44C253.786 312.053 255.401 305.296 253.786 300.55C250.142 289.84 238.196 289.384 211.996 280.65C181.748 270.568 148.095 277.334 135.049 281.977C120.235 286.841 103.342 301.346 154.286 320.45Z" fill="#024F3F"/>
<path d="M336.496 245.392C285.653 264.764 264.687 296.348 260.559 309.718C267.431 317.509 270.689 323.644 275.039 326.135C284.857 331.757 294.118 324.197 319.543 313.415C348.898 300.968 369.66 273.633 376.373 261.521C384.265 248.073 387.339 226.021 336.496 245.392Z" fill="#024F3F"/>
<path d="M251.133 303.937C250.469 299.294 243.305 291.334 230.569 288.681C214.649 285.364 159.363 269.169 150.306 264.137C144.336 260.821 138.072 254.771 133.722 250.207C130.187 246.498 128.416 244.237 127.089 237.604C125.242 228.367 135.196 221.058 146.989 220.357C151.632 220.357 164.236 220.779 170.206 221.684C184.948 223.917 204.267 227.468 219.956 239.594C227.563 245.473 233.301 253.741 239.193 264.137C257.235 295.977 253.786 303.937 251.133 303.937Z" fill="#024F3F"/>
<path d="M321.446 49.88C317.732 48.8187 313.486 48.5534 312.823 49.88C312.16 51.2067 296.24 161.984 296.24 161.984L304.2 152.034C308.18 144.958 316.803 129.48 319.456 124.174C322.11 118.867 326.311 102.947 328.08 95.6502C329.848 88.3535 328.874 80.2552 328.08 70.4434C327.722 66.0237 326.974 61.8201 326.753 59.1667C326.753 59.1667 325.161 50.9414 321.446 49.88Z" fill="#21835D"/>
<path d="M198.729 148.717C205.628 151.901 221.061 152.255 226.589 152.034C222.875 145.666 200.277 121.962 189.442 110.907L176.839 104.274C173.08 102.726 165.297 101.885 164.236 105.6C162.909 110.244 164.899 116.877 167.552 122.184C170.206 127.49 177.502 134.787 181.482 138.767C185.462 142.747 190.106 144.737 198.729 148.717Z" fill="#024F3F"/>
<path d="M232.186 152.034C240.677 159.463 258.056 195.814 264.689 209.744V109.58C265.574 110.465 264.291 101.886 260.046 76.4134C255.801 50.9414 239.704 32.1911 232.186 26C229.533 28.2111 223.695 35.4194 221.573 46.5634C219.45 57.7074 219.362 80.3935 219.583 90.3435C220.246 107.148 223.695 144.604 232.186 152.034Z" fill="#024F3F"/>
<path d="M342.217 485.028H180.364C191.198 481.932 215.255 468.444 224.807 463.138C236.747 456.504 243.38 424.001 245.37 412.724C246.369 407.068 248.685 381.55 250.014 355.677C251.334 329.971 251.671 303.914 251.34 296.641C250.677 282.047 228.787 249.544 224.807 245.564C222.917 243.674 213.456 238.08 203.58 230.97C196.817 226.102 189.86 219.792 185.007 216.377L161.127 186.527V180.557C169.529 190.065 189.518 210.274 196.947 217.704C206.234 226.99 228.787 239.594 235.42 245.564C240.727 250.34 252.888 272.982 258.637 282.711L261.29 249.544C261.29 244.016 260.892 228.582 259.3 211.07C257.31 189.18 226.134 154.024 224.807 150.707C223.746 148.054 201.811 125.279 190.977 114.224C189.732 112.667 189.65 114.224 189.65 110.32C190.204 110.282 191.239 110.627 192.967 111.57C200.264 115.55 228.677 145.559 240.727 159.33C250.014 169.944 259.3 188.517 263.944 203.11L263.28 186.527V111.57L267.26 101.62V109.58C267.039 136.556 268.056 191.303 268.587 194.487C269.25 198.467 271.24 217.704 271.24 228.317V280.721C271.24 284.435 273.452 288.017 274.557 289.344C274.557 289.344 295.12 266.791 298.437 264.801C301.754 262.811 344.207 212.397 346.861 209.08C349.514 205.764 358.801 190.507 362.781 183.21C364.766 179.57 368.282 169.83 371.404 158.667C374.54 147.456 376.751 133.687 378.037 126.827C380.027 116.214 384.007 112.234 384.007 109.58C385.113 113.781 385.069 121.918 384.007 131.47C383.319 137.662 381.486 146.975 380.027 156.014C379.235 160.919 377.877 165.08 376.711 169.28C374.281 178.029 366.022 197.361 350.841 217.04C345.571 223.871 339.099 230.874 332.931 237.604C325.634 245.564 315.684 256.841 306.397 266.127C293.794 280.721 279.2 292.661 277.21 303.937V370.934C277.21 412.061 285.834 449.871 294.457 460.484C301.356 468.975 329.172 480.384 342.217 485.028Z" fill="#914B27"/>
<path d="M291.596 57.1767C286.953 61.8201 277.003 73.7601 272.36 81.7201L267.053 92.9968C265.369 96.5801 263.736 100.957 263.073 104.274C262.41 107.59 267.052 184.537 268.379 184.537C269.706 184.537 290.269 170.607 292.923 167.29C295.577 163.974 296.298 163.354 298.23 160.657C303.492 153.31 305.789 148.599 308.843 140.094C310.924 134.298 311.45 130.839 312.823 124.837C315.169 114.582 316.976 108.811 317.466 98.3035C317.648 94.422 317.466 90.3435 317.466 88.3535V62.4834C317.466 60.4934 315.476 50.5434 315.476 50.5434C314.592 49.88 312.027 48.686 308.843 49.2167C304.863 49.88 296.239 52.5334 291.596 57.1767Z" fill="#024F3F"/>
<path fill-rule="evenodd" clip-rule="evenodd" d="M263.28 485.028L342.217 485.028C329.172 480.384 301.356 468.975 294.457 460.484C285.834 449.871 277.21 412.061 277.21 370.934V303.937C278.656 295.744 286.756 287.2 295.912 277.542C299.357 273.908 302.951 270.117 306.397 266.127C313.492 259.033 320.973 250.777 327.363 243.726C329.338 241.547 331.208 239.483 332.931 237.604C333.223 237.285 333.516 236.965 333.81 236.644C339.711 230.21 345.821 223.547 350.841 217.04C366.022 197.361 374.28 178.029 376.711 169.28C376.951 168.415 377.2 167.551 377.45 166.681C378.413 163.333 379.399 159.908 380.027 156.014C380.54 152.837 381.099 149.626 381.638 146.529C382.633 140.814 383.561 135.486 384.007 131.47C385.069 121.918 385.113 113.781 384.007 109.58C384.007 110.613 383.405 111.846 382.551 113.593C381.211 116.335 379.253 120.343 378.037 126.827C377.8 128.091 377.532 129.59 377.232 131.264C375.905 138.675 373.962 149.522 371.404 158.667C368.282 169.83 364.766 179.57 362.781 183.21C358.801 190.507 349.514 205.764 346.861 209.08C344.207 212.397 301.754 262.811 298.437 264.801C295.12 266.791 274.557 289.344 274.557 289.344C273.451 288.017 271.24 284.435 271.24 280.721V228.317C271.24 217.704 269.25 198.467 268.587 194.487C268.056 191.303 267.039 136.556 267.26 109.58V101.62L263.28 111.57V186.527L263.944 203.11C263.732 202.445 263.511 201.772 263.28 201.091V485.028Z" fill="#41251D"/>
</svg>
